HIERARCHY
ROOT Hips
{
	OFFSET -0.179506 -22.333345 2.821913
	CHANNELS 6 Xposition Yposition Zposition Zrotation Yrotation Xrotation 
	JOINT LeftUpLeg
	{
		OFFSET 6.951974 -9.140623 -0.681533
		CHANNELS 3 Zrotation Yrotation Xrotation
		JOINT LeftLeg
		{
			OFFSET 3.427654 -37.519855 -0.449580
			CHANNELS 3 Zrotation Yrotation Xrotation
			JOINT LeftFoot
			{
				OFFSET -1.359570 -39.796059 -4.369333
				CHANNELS 3 Zrotation Yrotation Xrotation
				JOINT LeftToe
				{
					OFFSET 2.635814 -5.579078 11.928840
					CHANNELS 3 Zrotation Yrotation Xrotation
					End Site
					{
						OFFSET 0.000000 0.000000 0.000000
					}
				}
			}
		}
	}
	JOINT RightUpLeg
	{
		OFFSET -6.767048 -9.052170 -0.431982
		CHANNELS 3 Zrotation Yrotation Xrotation
		JOINT RightLeg
		{
			OFFSET -3.829005 -38.256897 -0.885003
			CHANNELS 3 Zrotation Yrotation Xrotation
			JOINT RightFoot
			{
				OFFSET 1.577377 -39.841461 -4.231180
				CHANNELS 3 Zrotation Yrotation Xrotation
				JOINT RightToe
				{
					OFFSET -2.537174 -4.814398 12.334795
					CHANNELS 3 Zrotation Yrotation Xrotation
					End Site
					{
						OFFSET 0.000000 0.000000 0.000000
					}
				}
			}
		}
	}
	JOINT Spine
	{
		OFFSET -0.253288 10.896323 -2.669631
		CHANNELS 3 Zrotation Yrotation Xrotation
		JOINT Spine1
		{
			OFFSET 0.548704 13.518043 0.109247
			CHANNELS 3 Zrotation Yrotation Xrotation
			JOINT Spine2
			{
				OFFSET 0.145701 5.292222 2.542457
				CHANNELS 3 Zrotation Yrotation Xrotation
				JOINT Neck
				{
					OFFSET -0.277840 21.387037 -4.285703
					CHANNELS 3 Zrotation Yrotation Xrotation
					JOINT Head
					{
						OFFSET 0.515184 6.496960 5.134897
						CHANNELS 3 Zrotation Yrotation Xrotation
						End Site
						{
							OFFSET 0.000000 0.000000 0.000000
						}
					}
				}
				JOINT LeftShoulder
				{
					OFFSET 7.884473 12.174932 -3.408961
					CHANNELS 3 Zrotation Yrotation Xrotation
					JOINT LeftArm
					{
						OFFSET 9.097692 3.046888 -0.886815
						CHANNELS 3 Zrotation Yrotation Xrotation
						JOINT LeftForeArm
						{
							OFFSET 25.961220 -1.277207 -2.745643
							CHANNELS 3 Zrotation Yrotation Xrotation
							JOINT LeftHand
							{
								OFFSET 24.923361 0.898606 -0.117091
								CHANNELS 3 Zrotation Yrotation Xrotation
								End Site
								{
									OFFSET 0.000000 0.000000 0.000000
								}
							}
						}
					}
				}
				JOINT RightShoulder
				{
					OFFSET -8.175920 11.883285 -3.861528
					CHANNELS 3 Zrotation Yrotation Xrotation
					JOINT RightArm
					{
						OFFSET -9.601238 3.255117 -0.914307
						CHANNELS 3 Zrotation Yrotation Xrotation
						JOINT RightForeArm
						{
							OFFSET -25.374195 -1.332924 -2.140099
							CHANNELS 3 Zrotation Yrotation Xrotation
							JOINT RightHand
							{
								OFFSET -25.529810 0.777228 -0.555919
								CHANNELS 3 Zrotation Yrotation Xrotation
								End Site
								{
									OFFSET 0.000000 0.000000 0.000000
								}
							}
						}
					}
				}
			}
		}
	}
}
MOTION
Frames: 16
Frame Time: 0.033333
165.282547 -191.910706 87.449738 -98.513954 -1.441670 85.917751 -1.298720 4.729574 13.091046 -4.756411 -14.268238 16.645612 3.302854 14.369590 -32.750667 nan nan nan -5.984934 1.472572 -33.559929 3.259856 -13.537595 29.651521 9.188246 -7.471036 -19.868361 nan nan nan 0.224745 -5.613311 26.554780 4.903196 -0.713370 -3.891418 1.317011 -2.581465 2.994628 8.218419 -13.595074 9.304208 -0.217160 -24.488366 23.723261 -24.032466 -2.397547 4.626423 -49.290367 -11.182831 16.997032 -8.983108 -42.076414 17.373332 -4.919129 -15.275591 -4.758184 27.143130 2.126776 1.024003 51.532564 -5.715353 12.942562 -9.895729 30.558292 -5.084852 12.354817 8.343236 -1.880144 
164.654312 -191.628662 87.361237 -98.223819 -1.455869 85.779963 -0.894349 5.122834 14.069207 -4.685640 -14.879790 15.923931 3.290184 14.122329 -32.693880 nan nan nan -6.174038 0.918228 -33.422530 3.227888 -13.350676 28.177817 9.014401 -7.855263 -19.581596 nan nan nan 0.266738 -5.657178 26.148444 4.875192 -0.768498 -3.512705 1.320222 -2.658280 2.943273 8.251747 -13.499817 9.561425 0.227886 -24.347856 22.692587 -24.295574 -2.212370 4.677957 -48.982367 -11.156849 16.761595 -9.100411 -41.672493 17.424265 -6.751239 -14.288069 -4.706167 27.332404 1.853423 0.973192 51.717017 -6.005815 12.843122 -10.149447 30.361437 -5.369778 12.917028 7.799919 -1.414098 
164.045898 -191.399841 87.244530 -97.936824 -1.415158 85.903838 -0.488253 5.231597 14.683028 -4.584465 -15.079629 15.246668 3.001044 13.605273 -32.540094 nan nan nan -6.324124 0.534115 -33.483527 2.948450 -13.417108 26.662880 9.115361 -8.031037 -19.411052 nan nan nan 0.312791 -5.690169 25.534750 4.815255 -0.819718 -3.266224 1.489272 -2.815037 3.188257 8.051439 -13.000234 9.555844 0.817876 -23.945050 21.619690 -23.965717 -1.658937 4.321047 -49.914987 -11.178848 16.416936 -8.594232 -41.523873 17.253472 -5.660652 -14.913741 -4.002202 27.125668 1.484798 0.904575 52.155820 -5.971522 12.925477 -10.233527 30.246864 -4.956485 12.897807 7.550446 -1.393934 
163.434387 -191.144073 87.120224 -97.640672 -1.472204 85.882729 -0.151850 5.490003 15.432496 -4.520302 -15.532121 14.606924 2.790939 13.368532 -32.445255 nan nan nan -6.592183 0.213359 -33.416912 2.780530 -13.313703 25.177851 9.154409 -8.056078 -19.321783 nan nan nan 0.204307 -5.699658 25.190540 4.845408 -0.931016 -3.099860 1.614915 -2.931528 3.172695 7.900092 -12.814424 9.512977 0.998790 -23.747105 21.177331 -23.796311 -1.631083 4.362316 -50.206702 -11.200862 16.528913 -8.257266 -40.956632 17.442319 -5.183946 -15.009015 -3.945630 27.200497 1.351340 0.974313 52.261230 -6.011286 12.904353 -10.112727 29.867320 -4.813157 12.633847 7.383624 -1.424205 
162.790771 -190.854462 86.984718 -97.413833 -1.524850 85.776097 0.244045 5.776272 16.379839 -4.463913 -16.012479 13.864189 2.633229 13.154473 -32.352760 nan nan nan -6.804365 -0.194536 -33.258461 2.703081 -13.131316 23.868003 8.833814 -8.084114 -19.183081 nan nan nan 0.145610 -5.674975 24.870628 4.840713 -1.044794 -2.863546 1.636886 -3.025771 3.102947 7.825697 -12.862596 9.612769 1.047025 -23.652809 20.845278 -23.688808 -1.459741 4.421549 -50.402360 -11.273200 16.417458 -8.184349 -40.189040 17.488040 -5.392024 -14.702350 -4.101273 27.385574 1.210720 1.145047 52.366218 -6.070680 12.703227 -10.084543 29.507663 -4.879645 12.635891 7.187585 -1.316603 
162.109573 -190.562317 86.814430 -97.131403 -1.572953 85.698170 0.719562 6.092206 17.328316 -4.438912 -16.560376 13.092024 2.552991 12.830853 -32.242180 nan nan nan -7.030531 -0.685172 -33.102776 2.632085 -13.062380 22.609760 8.392885 -8.275801 -19.151387 nan nan nan 0.161133 -5.669776 24.366775 4.819727 -1.127633 -2.504130 1.646508 -3.152745 3.060412 7.791817 -12.779801 9.887721 1.225665 -23.526723 20.096504 -23.775253 -1.363104 4.517392 -50.343776 -11.389977 16.198565 -8.327474 -39.389186 17.629813 -7.238439 -13.417017 -3.929998 27.511639 0.984864 1.279079 52.543738 -6.101476 12.481727 -10.209818 29.192961 -5.047989 13.348017 6.717758 -1.109350 
161.439835 -190.275848 86.637421 -96.829436 -1.649678 85.656834 1.151610 6.379563 18.163961 -4.366049 -16.979952 12.455063 2.417495 12.332896 -32.206239 nan nan nan -7.290045 -1.240062 -32.975768 2.430555 -13.323061 21.472769 8.370714 -8.189254 -19.038375 nan nan nan 0.177493 -5.699733 23.947363 4.758364 -1.224008 -2.263162 1.652286 -3.258625 3.020245 7.737599 -12.702013 10.044425 1.492169 -23.388802 19.446041 -23.829373 -1.167833 4.588494 -50.382663 -11.519894 16.004084 -8.370491 -38.787779 17.923168 -7.450809 -13.297325 -3.575952 27.657383 0.752911 1.361916 52.651800 -6.174993 12.359788 -10.148467 28.930384 -4.826473 13.546833 6.423830 -1.034388 
160.763977 -189.935089 86.451706 -96.684852 -1.737733 85.538837 1.569193 6.723446 19.143415 -4.224697 -17.379005 11.798080 2.292128 11.928282 -32.300255 nan nan nan -7.454828 -1.740445 -32.767443 2.208712 -13.588323 20.373932 8.562943 -8.066159 -19.067580 nan nan nan 0.149384 -5.662813 23.668145 4.690821 -1.261028 -1.942913 1.599540 -3.318732 2.841524 7.767630 -12.656675 10.198490 1.735554 -23.348048 18.856787 -24.110942 -0.958395 4.808801 -49.708285 -11.451244 15.819091 -8.999223 -38.779680 18.866706 -6.907573 -13.388380 -3.834362 27.970364 0.599001 1.563416 52.645843 -6.389502 12.163447 -10.147055 28.774964 -4.736349 13.367042 6.343677 -1.046370 
160.109497 -189.630615 86.254295 -96.661739 -1.829260 85.565131 1.945558 7.016575 19.995701 -4.139597 -17.629354 11.067948 2.267136 11.632555 -32.326267 nan nan nan -7.666485 -2.296145 -32.955199 2.220092 -13.835288 19.634339 8.566540 -8.143447 -18.883154 nan nan nan 0.171301 -5.583671 23.257972 4.544628 -1.157255 -1.741818 1.707829 -3.475781 2.825586 7.577056 -12.748782 10.374236 1.916699 -23.100618 18.222736 -24.188314 -0.953002 4.995623 -50.040957 -11.489604 15.583152 -8.294909 -38.161165 17.816167 -7.261938 -13.199747 -3.091512 27.992560 0.437459 1.815970 52.800159 -6.388110 11.825093 -10.130600 28.491912 -5.146495 13.416030 6.289612 -0.836008 
159.425903 -189.302628 86.032257 -96.537729 -1.921105 85.493195 2.481147 7.346712 20.987822 -4.238478 -18.103317 10.350367 2.225443 11.435132 -32.323768 nan nan nan -8.012273 -2.739279 -32.919891 2.422509 -13.668263 18.938498 8.444564 -8.527322 -19.002776 nan nan nan 0.148306 -5.614916 22.984328 4.489189 -1.152197 -1.511392 1.720611 -3.535284 2.734899 7.528217 -12.675699 10.432680 2.039249 -22.861118 17.693122 -24.266017 -0.890760 5.167591 -50.023765 -11.442680 15.410751 -8.147468 -37.859003 17.628416 -7.495750 -12.939376 -3.063070 28.073389 0.324245 1.968219 52.925917 -6.535569 11.647874 -10.180271 28.306237 -5.352708 13.385978 6.209349 -0.586127 
158.703323 -188.962296 85.809532 -96.385833 -2.024015 85.301576 3.010758 7.605806 22.157913 -4.306766 -18.698803 9.589753 2.084853 11.290501 -32.263907 nan nan nan -8.390932 -3.171406 -32.724027 2.656056 -13.642963 18.248780 8.297447 -9.124906 -19.197273 nan nan nan 0.068933 -5.663995 22.784961 4.443862 -1.185683 -1.120943 1.767191 -3.585080 2.624455 7.499518 -12.538187 10.394933 1.976717 -22.538496 17.097373 -24.384860 -0.737387 5.103906 -49.948040 -11.318786 15.303705 -8.203512 -37.637074 17.749881 -7.596402 -12.511583 -3.016415 28.152839 0.263539 2.004660 53.038093 -6.691709 11.633327 -10.271908 28.093372 -5.486467 13.504836 5.950121 -0.107075 
158.009293 -188.641617 85.577415 -96.313033 -2.075429 85.395462 3.362142 7.653878 22.887377 -4.245451 -18.960840 8.951518 1.911036 11.102775 -32.265513 nan nan nan -8.646986 -3.558782 -32.977437 2.734197 -13.982591 17.939385 8.246810 -9.586439 -19.104846 nan nan nan 0.088794 -5.674182 22.337170 4.424475 -1.171519 -0.789953 1.806761 -3.674024 2.664167 7.512021 -12.265018 10.128513 1.592385 -22.057559 16.398234 -24.447099 -0.498858 4.825701 -50.123015 -11.344801 15.321606 -8.131112 -37.009186 17.937893 -7.680528 -12.623736 -3.046524 28.111061 0.098484 1.896872 53.233760 -6.666875 11.783218 -10.414191 27.738328 -5.531517 13.630465 5.814747 0.091655 
157.324280 -188.287781 85.330215 -96.232106 -2.118578 85.527128 3.735918 7.738697 23.501761 -4.177215 -19.304514 8.468229 1.661087 10.811063 -32.362094 nan nan nan -8.776318 -3.942242 -33.288482 2.593716 -14.279730 17.799252 8.187278 -9.871499 -19.087664 nan nan nan 0.126471 -5.736877 21.934950 4.444991 -1.211852 -0.571794 1.698504 -3.669005 2.646609 7.576436 -12.150591 9.856799 1.835384 -22.042354 15.487878 -24.483582 -0.354027 4.777729 -49.713608 -11.280101 15.426526 -8.823993 -36.706208 19.005280 -6.954829 -12.971337 -4.005460 28.199720 0.015888 1.817825 53.333322 -6.802975 11.817811 -10.477378 27.494657 -5.254154 13.719784 5.870320 0.042212 
156.648941 -187.980972 85.103371 -96.200729 -2.120709 85.788077 4.119938 7.758904 23.933722 -4.148166 -19.532760 8.043469 1.323274 10.478660 -32.301024 nan nan nan -8.835346 -4.135211 -33.596411 2.232825 -14.492115 17.695324 7.976561 -9.950935 -19.222195 nan nan nan 0.221526 -5.922493 21.507583 4.280663 -1.135708 -0.509163 1.782298 -3.689429 2.758184 7.364612 -12.104062 9.651152 2.056156 -21.720790 14.640925 -24.335303 0.096236 4.760381 -50.611542 -10.945133 14.793142 -7.840480 -37.022405 18.483818 -7.514413 -12.387025 -3.736249 27.893758 -0.034813 1.947283 53.814647 -6.823508 11.708164 -10.732231 27.640664 -4.726285 14.527641 5.467129 -0.101550 
155.944717 -187.666428 84.895821 -96.214632 -2.137349 85.853414 4.525334 7.924524 24.610740 -4.109464 -19.970029 7.596775 1.081608 10.412370 -32.325375 nan nan nan -8.969646 -4.200094 -33.827085 1.989610 -14.633907 17.725471 7.653905 -9.965680 -19.617757 nan nan nan 0.190141 -5.980334 21.320928 4.249104 -0.993501 -0.565544 1.930155 -3.812103 2.852081 7.217720 -11.869919 9.314040 1.950033 -21.446288 14.207052 -24.327926 0.029712 4.741608 -50.850029 -10.853967 14.713452 -7.711350 -36.337650 18.195713 -7.490962 -12.032745 -3.410252 27.877685 -0.036902 1.918534 53.771482 -6.743843 11.648272 -10.659440 27.310977 -4.656400 14.776701 5.288232 0.229143 
155.200623 -187.301437 84.643860 -96.126950 -2.151747 85.885458 4.990698 8.051347 25.343946 -4.094264 -20.446457 7.211541 0.957313 10.403240 -32.413276 nan nan nan -9.210103 -4.486518 -34.018084 2.021127 -14.924842 18.015221 7.473159 -9.951341 -19.895891 nan nan nan 0.193987 -6.064159 21.105819 4.296440 -0.952648 -0.537399 1.973233 -3.859724 2.973976 7.164105 -11.635556 8.926305 1.821772 -21.229146 13.747814 -24.175592 -0.018804 4.667871 -51.308883 -10.943078 14.894951 -7.426183 -35.219123 18.144254 -7.393264 -12.298693 -3.620320 27.820254 -0.137477 1.770781 53.781339 -6.749416 11.603744 -10.554278 27.011895 -4.478654 14.877939 5.267192 0.582828 
